<?xml version="1.0" standalone="no"?>
<!DOCTYPE svg PUBLIC "-//W3C//DTD SVG 20010904//EN"
 "http://www.w3.org/TR/2001/REC-SVG-20010904/DTD/svg10.dtd">
<svg version="1.0" xmlns="http://www.w3.org/2000/svg"
 width="1024.000000pt" height="1024.000000pt" viewBox="0 0 1024.000000 1024.000000"
 preserveAspectRatio="xMidYMid meet">

<g transform="translate(0.000000,1024.000000) scale(0.100000,-0.100000)"
fill="#000000" stroke="none">
<path d="M0 7591 l0 -2649 57 -28 c152 -74 204 -164 339 -589 36 -115 83 -264
104 -330 21 -66 64 -201 95 -300 53 -169 167 -527 255 -800 21 -66 62 -196 90
-290 29 -93 92 -298 142 -455 139 -444 140 -448 132 -461 -4 -7 -3 -10 3 -6
11 7 29 -61 19 -71 -3 -3 -6 0 -6 7 0 7 -5 9 -12 5 -8 -5 -9 0 -6 14 4 12 2
20 -2 17 -7 -4 -33 71 -56 160 -3 11 -16 49 -29 85 -13 36 -49 148 -80 250
-94 305 -107 346 -244 776 -28 89 -51 170 -51 181 0 10 -4 23 -9 29 -15 15
-73 213 -66 224 3 5 2 10 -3 10 -10 0 -28 46 -61 155 -12 39 -48 153 -80 255
-33 102 -71 226 -86 275 -14 50 -35 113 -45 140 -20 54 -60 178 -64 198 -2 7
-6 19 -9 27 -18 49 -47 143 -52 172 -3 18 -10 35 -16 36 -5 2 -9 9 -9 14 0 25
-94 160 -133 192 -38 30 -98 66 -112 66 -3 0 -5 -363 -5 -808 l0 -807 103 -1
c124 0 196 -24 262 -88 52 -49 81 -132 71 -201 -10 -60 -63 -143 -121 -187
-71 -54 -183 -107 -254 -120 l-61 -12 0 -83 c0 -76 2 -84 18 -79 9 3 61 17
114 31 53 14 129 37 168 51 39 13 75 22 81 19 19 -13 8 -33 -28 -49 -31 -14
-239 -72 -330 -93 l-23 -5 0 -449 c0 -309 3 -449 11 -449 19 0 243 59 303 80
33 11 75 29 94 40 19 12 35 20 36 18 54 -127 102 -182 209 -239 84 -44 127
-78 127 -100 0 -31 -93 -218 -165 -335 -114 -181 -201 -294 -229 -294 -13 0
-97 25 -187 55 -90 31 -172 58 -181 61 -15 5 -18 0 -18 -25 0 -27 3 -31 28
-31 15 -1 39 -6 55 -13 l27 -12 -55 -29 -55 -28 0 -359 0 -359 440 0 440 0
112 31 c62 17 131 35 153 40 41 10 91 29 137 55 14 7 34 14 43 14 9 0 14 4 11
8 -7 12 52 54 64 47 6 -3 10 0 10 8 0 24 36 62 44 48 5 -7 2 -10 -6 -9 -8 2
-12 -4 -10 -17 2 -11 1 -17 -4 -13 -4 5 -12 -2 -18 -14 -13 -25 -87 -79 -98
-72 -5 3 -8 1 -8 -4 0 -17 -80 -52 -196 -86 l-119 -35 4623 -1 4622 0 0 2510
0 2511 -61 -7 c-56 -6 -61 -5 -57 12 2 14 17 22 58 29 45 9 56 15 58 33 4 26
-1 26 -80 10 -31 -7 -60 -9 -64 -5 -11 11 14 34 44 42 93 22 102 26 102 45 0
24 -6 24 -85 5 -77 -19 -95 -19 -95 0 0 19 31 31 116 47 56 11 64 15 64 35 0
13 -2 23 -5 23 -2 0 -43 -9 -91 -20 -87 -21 -119 -20 -112 1 4 13 102 45 166
55 l42 6 0 1151 0 1150 -61 176 c-114 326 -120 344 -110 354 18 18 36 -1 55
-59 10 -33 26 -77 36 -99 10 -22 30 -80 46 -130 l29 -90 3 49 c2 28 -1 59 -7
70 -20 43 -91 248 -91 266 0 19 8 23 68 35 l32 7 -1 201 c0 147 -3 196 -11
181 -22 -46 -84 -55 -155 -23 -42 19 -52 20 -104 10 -119 -24 -158 -40 -174
-72 -38 -72 -97 -89 -175 -49 -44 22 -77 25 -132 10 -46 -13 -71 -2 -93 41
-24 46 -4 78 66 101 49 16 58 24 77 62 16 33 29 47 56 56 31 10 42 8 96 -16
l60 -27 87 22 c114 28 141 39 148 62 3 10 19 32 35 48 35 38 66 40 138 6 30
-14 60 -25 67 -25 12 0 14 76 15 429 l0 429 -52 21 c-153 61 -311 52 -461 -26
-154 -81 -245 -222 -262 -405 -4 -42 -10 -80 -14 -86 -8 -13 -92 -19 -110 -7
-22 13 -8 185 19 260 91 242 312 398 585 412 95 5 118 2 273 -34 l22 -5 0 224
0 225 -127 1 c-87 1 -131 -2 -142 -11 -12 -9 -13 -9 -7 0 5 10 -285 13 -1389
12 -1058 -1 -1393 -4 -1388 -12 5 -9 3 -9 -8 0 -21 17 -350 17 -361 0 -6 -9
-8 -9 -8 0 0 18 -1951 18 -1962 0 -6 -9 -8 -9 -8 0 0 10 -509 13 -2420 13
l-2420 0 0 -2649z m10050 2629 c0 -5 -2 -10 -4 -10 -3 0 -8 5 -11 10 -3 6 -1
10 4 10 6 0 11 -4 11 -10z m-2895 -20 c-3 -5 -12 -10 -18 -10 -7 0 -6 4 3 10
19 12 23 12 15 0z m-580 -18 c-3 -3 -11 0 -18 7 -9 10 -8 11 6 5 10 -3 15 -9
12 -12z m110 8 c3 -5 2 -10 -4 -10 -5 0 -13 5 -16 10 -3 6 -2 10 4 10 5 0 13
-4 16 -10z m665 -20 c0 -5 -2 -10 -4 -10 -3 0 -8 5 -11 10 -3 6 -1 10 4 10 6
0 11 -4 11 -10z m-965 -10 c3 -6 -1 -7 -9 -4 -18 7 -21 14 -7 14 6 0 13 -4 16
-10z m435 0 c0 -5 -2 -10 -4 -10 -3 0 -8 5 -11 10 -3 6 -1 10 4 10 6 0 11 -4
11 -10z m54 1 c3 -5 -1 -11 -9 -15 -8 -3 -17 0 -21 6 -4 7 -3 8 4 4 7 -4 12
-2 12 3 0 13 7 14 14 2z m441 -1 c3 -6 -1 -7 -9 -4 -18 7 -21 14 -7 14 6 0 13
-4 16 -10z m2200 -18 c-3 -3 -11 0 -18 7 -9 10 -8 11 6 5 10 -3 15 -9 12 -12z
m-2923 -8 c-12 -8 -28 -13 -35 -11 -7 3 -5 6 6 6 9 1 17 6 17 11 0 6 8 10 17
10 14 0 13 -3 -5 -16z m153 6 c3 -6 -1 -7 -9 -4 -18 7 -21 14 -7 14 6 0 13 -4
16 -10z m1209 -6 c3 -8 2 -12 -4 -9 -6 3 -10 10 -10 16 0 14 7 11 14 -7z
m-764 2 c0 -3 -4 -8 -10 -11 -5 -3 -10 -1 -10 4 0 6 5 11 10 11 6 0 10 -2 10
-4z m250 -2 c0 -8 -19 -13 -24 -6 -3 5 1 9 9 9 8 0 15 -2 15 -3z m-629 -21
c13 -16 12 -17 -3 -4 -10 7 -18 15 -18 17 0 8 8 3 21 -13z m669 1 c0 -2 -7 -4
-15 -4 -8 0 -15 4 -15 10 0 5 7 7 15 4 8 -4 15 -8 15 -10z m700 12 c0 -3 -4
-8 -10 -11 -5 -3 -10 -1 -10 4 0 6 5 11 10 11 6 0 10 -2 10 -4z m-1685 -16
c-3 -5 -12 -10 -18 -10 -7 0 -6 4 3 10 19 12 23 12 15 0z m649 -6 c3 -8 2 -12
-4 -9 -6 3 -10 10 -10 16 0 14 7 11 14 -7z m66 12 c0 -3 -4 -8 -10 -11 -5 -3
-10 -1 -10 4 0 6 5 11 10 11 6 0 10 -2 10 -4z m120 -6 c0 -5 -10 -15 -22 -21
l-23 -12 20 21 c23 24 25 25 25 12z m65 -8 c-3 -3 -11 0 -18 7 -9 10 -8 11 6
5 10 -3 15 -9 12 -12z m-541 -7 c-4 -8 -11 -12 -16 -9 -6 4 -5 10 3 15 19 12
19 11 13 -6z m-397 -17 c-3 -8 -6 -5 -6 6 -1 11 2 17 5 13 3 -3 4 -12 1 -19z
m477 -7 c-2 -3 -12 3 -22 13 -16 17 -16 18 5 5 12 -7 20 -15 17 -18z m165 8
c-15 -9 -32 -2 -24 11 3 5 13 6 21 3 12 -4 13 -8 3 -14z m816 11 c-3 -5 -12
-10 -18 -10 -7 0 -6 4 3 10 19 12 23 12 15 0z m379 -16 c3 -8 2 -12 -4 -9 -6
3 -10 10 -10 16 0 14 7 11 14 -7z m-2159 -4 c-3 -5 -12 -10 -18 -10 -7 0 -6 4
3 10 19 12 23 12 15 0z m640 -13 c201 -6 351 -51 498 -150 31 -21 62 -35 69
-31 6 4 8 3 5 -3 -4 -6 10 -25 31 -44 21 -19 50 -51 66 -71 15 -21 32 -36 36
-33 4 3 7 -3 6 -13 0 -9 4 -16 10 -15 6 1 11 -3 11 -10 1 -23 91 -186 98 -179
5 4 5 1 1 -5 -11 -20 15 -93 33 -93 14 0 14 -2 1 -11 -11 -8 -12 -12 -2 -16 6
-2 10 -9 6 -14 -3 -5 -2 -19 1 -30 6 -17 9 -19 17 -8 7 10 7 8 3 -8 -5 -17 -2
-23 9 -23 20 0 29 -17 15 -26 -8 -4 -9 -3 -5 4 4 7 1 12 -7 12 -14 0 -6 -33
30 -120 8 -19 8 -19 17 -52 5 -16 12 -28 18 -28 5 0 7 -4 4 -9 -3 -5 4 -38 15
-74 16 -52 24 -65 37 -60 11 3 13 2 6 -4 -6 -4 -11 -16 -11 -25 0 -13 9 -18
31 -19 30 -1 30 -2 5 -8 -25 -6 -25 -7 -12 -38 7 -18 19 -33 26 -33 8 0 9 -2
1 -8 -8 -5 -9 -14 -1 -32 5 -14 11 -30 13 -37 12 -60 27 -83 52 -84 24 -2 24
-2 5 -6 -13 -2 -23 -5 -23 -7 0 -18 46 -123 58 -133 16 -12 16 -13 -1 -7 -13
5 -16 2 -11 -10 3 -9 14 -16 23 -17 9 0 11 -3 5 -5 -15 -6 52 -214 74 -231 9
-7 11 -13 5 -13 -6 0 -2 -23 10 -59 11 -33 25 -57 30 -54 6 3 7 1 3 -5 -9 -15
90 -304 110 -318 8 -7 10 -14 5 -15 -6 -3 4 -43 24 -99 19 -52 35 -100 35
-107 0 -7 7 -16 16 -21 10 -6 12 -12 6 -16 -6 -4 -1 -27 14 -63 13 -32 24 -64
24 -71 0 -7 3 -11 8 -9 4 3 8 -5 9 -16 2 -27 25 -104 53 -177 12 -30 23 -62
25 -70 2 -8 20 -62 40 -120 20 -58 38 -113 40 -122 2 -9 8 -25 14 -36 6 -11 7
-22 4 -26 -3 -3 5 -7 18 -7 13 -1 17 -3 8 -6 -13 -3 -11 -17 15 -96 17 -51 36
-95 41 -99 6 -4 7 -8 3 -8 -4 0 2 -25 13 -57 10 -31 17 -58 15 -60 -5 -5 -66
151 -66 168 0 6 -6 25 -14 42 -8 18 -16 41 -19 52 -3 11 -29 83 -57 160 -28
77 -60 167 -71 200 -10 33 -23 69 -29 80 -5 11 -21 58 -35 105 -14 47 -54 162
-87 255 -84 236 -145 410 -167 475 -11 30 -44 125 -74 210 -161 452 -348 990
-389 1115 -11 33 -23 69 -28 80 -5 11 -12 31 -16 45 -3 14 -21 55 -40 93 -142
286 -444 467 -777 467 -137 0 -194 -10 -527 -94 -251 -63 -838 -206 -995 -242
-44 -10 -84 -19 -90 -21 -158 -40 -501 -124 -519 -127 -14 -2 -80 -19 -148
-36 -68 -18 -152 -38 -188 -45 -36 -7 -182 -42 -325 -78 -238 -60 -278 -69
-341 -81 -12 -3 -52 -13 -90 -24 -94 -27 -208 -52 -236 -51 -13 0 4 7 37 15
33 9 103 26 155 39 52 13 120 30 150 38 116 30 256 61 268 58 6 -1 12 3 12 9
0 5 8 10 17 10 10 0 110 23 223 51 113 27 268 65 345 84 240 58 629 153 900
220 887 219 1121 275 1165 281 37 5 50 11 50 23 0 10 3 12 8 5 4 -8 59 -13
147 -17z m293 -2 c-3 -3 -9 2 -12 12 -6 14 -5 15 5 6 7 -7 10 -15 7 -18z m147
15 c16 -6 14 -8 -12 -7 -18 0 -30 4 -27 9 6 10 12 9 39 -2z m135 6 c0 -3 -4
-8 -10 -11 -5 -3 -10 -1 -10 4 0 6 5 11 10 11 6 0 10 -2 10 -4z m1977 -18 c-3
-8 -6 -5 -6 6 -1 11 2 17 5 13 3 -3 4 -12 1 -19z m-3097 -26 c0 -1 -9 2 -20 8
-11 6 -20 15 -20 20 0 6 9 2 20 -7 11 -10 20 -19 20 -21z m750 28 c0 -5 -2
-10 -4 -10 -3 0 -8 5 -11 10 -3 6 -1 10 4 10 6 0 11 -4 11 -10z m317 -15 c5
-4 3 -5 -4 -2 -6 4 -13 2 -15 -4 -2 -7 -8 -6 -16 3 -9 12 -8 14 8 13 11 -1 23
-5 27 -10z m240 -10 c0 -8 -4 -12 -9 -9 -5 3 -6 10 -3 15 9 13 12 11 12 -6z
m608 5 c3 -6 -1 -7 -9 -4 -18 7 -21 14 -7 14 6 0 13 -4 16 -10z m-1780 -10 c3
-6 -1 -7 -9 -4 -18 7 -21 14 -7 14 6 0 13 -4 16 -10z m2832 4 c-3 -3 -12 -4
-19 -1 -8 3 -5 6 6 6 11 1 17 -2 13 -5z m-1940 -26 c-3 -8 -6 -5 -6 6 -1 11 2
17 5 13 3 -3 4 -12 1 -19z m520 0 c-3 -8 -6 -5 -6 6 -1 11 2 17 5 13 3 -3 4
-12 1 -19z m233 -12 c0 -2 -7 -7 -16 -10 -8 -3 -12 -2 -9 4 6 10 25 14 25 6z
m-1963 -21 c0 -8 -4 -12 -9 -9 -4 3 -8 9 -8 15 0 5 4 9 8 9 5 0 9 -7 9 -15z
m1290 -31 c-3 -3 -12 -4 -19 -1 -8 3 -5 6 6 6 11 1 17 -2 13 -5z m624 -17
c-10 -9 -11 -8 -5 6 3 10 9 15 12 12 3 -3 0 -11 -7 -18z m-2078 0 c3 -8 -1
-14 -8 -14 -7 0 -11 6 -8 14 3 7 6 13 8 13 2 0 5 -6 8 -13z m2587 3 c0 -5 -2
-10 -4 -10 -3 0 -8 5 -11 10 -3 6 -1 10 4 10 6 0 11 -4 11 -10z m-978 -11 c2
-2 1 -3 -1 -2 -2 1 -12 -2 -22 -8 -14 -7 -17 -6 -13 5 5 13 29 16 36 5z m68 1
c0 -5 -2 -10 -4 -10 -3 0 -8 5 -11 10 -3 6 -1 10 4 10 6 0 11 -4 11 -10z m513
-35 c-3 -9 -8 -14 -10 -11 -3 3 -2 9 2 15 9 16 15 13 8 -4z m-678 -5 c-3 -5
-14 -10 -23 -9 -14 0 -13 2 3 9 27 11 27 11 20 0z m262 -5 c0 -8 -4 -12 -9 -9
-5 3 -6 10 -3 15 9 13 12 11 12 -6z m376 0 c-3 -9 -8 -14 -10 -11 -3 3 -2 9 2
15 9 16 15 13 8 -4z m-623 -19 c0 -2 -7 -6 -15 -10 -8 -3 -15 -1 -15 4 0 6 7
10 15 10 8 0 15 -2 15 -4z m827 -12 c-3 -3 -12 -4 -19 -1 -8 3 -5 6 6 6 11 1
17 -2 13 -5z m-790 -30 c-3 -3 -12 -4 -19 -1 -8 3 -5 6 6 6 11 1 17 -2 13 -5z
m3 -24 c0 -5 -5 -10 -11 -10 -5 0 -7 5 -4 10 3 6 8 10 11 10 2 0 4 -4 4 -10z
m440 -15 c0 -7 -30 -13 -34 -7 -3 4 4 9 15 9 10 1 19 0 19 -2z m64 -33 c3 -5
-1 -9 -9 -9 -8 0 -12 4 -9 9 3 4 7 8 9 8 2 0 6 -4 9 -8z m-209 -30 c-3 -3 -11
0 -18 7 -9 10 -8 11 6 5 10 -3 15 -9 12 -12z m911 -29 c9 -21 61 -168 116
-328 55 -159 139 -405 188 -545 608 -1763 651 -1893 638 -1902 -23 -16 -137 0
-196 27 -64 29 -135 93 -162 145 -20 39 -107 284 -235 660 -46 135 -127 369
-180 520 -294 835 -405 1167 -405 1215 0 80 66 177 149 220 25 13 52 24 58 25
7 0 20 -17 29 -37z m625 -59 c9 -11 10 -20 3 -32 -15 -23 -29 -25 -48 -7 -12
12 -13 21 -6 36 13 23 33 25 51 3z m-1426 -14 c3 -6 -1 -7 -9 -4 -18 7 -21 14
-7 14 6 0 13 -4 16 -10z m2287 -40 c65 -24 69 -28 62 -58 -9 -31 -31 -34 -77
-10 -34 18 -58 22 -127 22 -96 -1 -148 -19 -226 -78 -39 -30 -49 -33 -65 -23
-30 18 -23 42 24 82 49 43 101 71 154 85 60 15 191 5 255 -20z m-5642 0 c8 -5
11 -10 5 -10 -5 0 -17 5 -25 10 -8 5 -10 10 -5 10 6 0 17 -5 25 -10z m4650
-45 c12 -22 12 -28 -2 -42 -11 -10 -25 -13 -42 -9 -28 7 -33 25 -16 57 15 27
44 24 60 -6z m-1325 -73 c-3 -3 -11 0 -18 7 -9 10 -8 11 6 5 10 -3 15 -9 12
-12z m2279 -54 c40 -12 116 -77 116 -99 0 -8 -5 -7 -16 2 -11 9 -18 10 -22 2
-5 -8 -23 -4 -57 11 -51 24 -211 44 -200 25 4 -5 -1 -6 -10 -3 -10 4 -27 -7
-50 -31 -33 -37 -65 -43 -65 -11 0 18 74 84 114 102 39 17 136 18 190 2z
m-2399 -48 c3 -5 1 -10 -4 -10 -6 0 -11 5 -11 10 0 6 2 10 4 10 3 0 8 -4 11
-10z m-4440 -119 c-16 -15 -65 -25 -65 -13 0 6 15 13 33 15 17 2 34 5 37 5 2
1 0 -2 -5 -7z m4450 -11 c3 -5 1 -10 -4 -10 -6 0 -11 5 -11 10 0 6 2 10 4 10
3 0 8 -4 11 -10z m-4530 -8 c-19 -17 -323 -88 -333 -78 -5 6 47 20 172 48 50
11 105 24 121 28 42 11 51 11 40 2z m4608 -69 c-7 -2 -19 -2 -25 0 -7 3 -2 5
12 5 14 0 19 -2 13 -5z m-5003 -27 c-27 -14 -130 -39 -137 -33 -2 3 18 10 44
17 26 6 59 16 73 20 38 13 48 11 20 -4z m-345 -86 c-3 -5 -22 -12 -43 -15 -20
-4 -46 -9 -57 -12 -11 -3 -17 -2 -13 2 5 6 89 32 111 34 5 1 6 -3 2 -9z m5570
-68 c-3 -3 -11 0 -18 7 -9 10 -8 11 6 5 10 -3 15 -9 12 -12z m-5958 -28 c-3
-3 -12 -4 -19 -1 -8 3 -5 6 6 6 11 1 17 -2 13 -5z m-202 -44 c-3 -5 -12 -10
-18 -10 -7 0 -6 4 3 10 19 12 23 12 15 0z m3214 -84 c17 -46 31 -86 31 -90 0
-3 -11 -6 -25 -6 -14 0 -25 5 -25 10 0 6 -20 10 -44 10 -25 0 -48 -4 -51 -10
-8 -14 -45 -13 -45 1 0 6 17 48 39 94 35 75 41 82 63 78 21 -4 31 -19 57 -87z
m-341 0 c15 -89 12 -106 -18 -106 -16 0 -20 7 -20 30 0 28 -3 30 -35 30 -33 0
-35 -2 -35 -36 0 -31 -3 -35 -22 -32 -24 3 -32 31 -40 133 -2 42 0 50 16 53
21 4 36 -13 36 -43 1 -33 16 -48 42 -42 21 6 24 11 20 37 -6 40 4 62 25 58 14
-2 21 -21 31 -82z m622 37 l0 -37 33 32 c31 30 65 41 80 26 4 -4 -12 -23 -35
-43 l-41 -37 27 -47 28 -47 -25 0 c-29 0 -52 20 -63 53 -7 20 -8 20 -19 -12
-12 -38 -23 -45 -43 -32 -10 6 -11 22 -2 77 15 94 18 104 41 104 15 0 19 -7
19 -37z m-1070 -28 c0 -20 -5 -25 -25 -25 -16 0 -25 -6 -25 -15 0 -10 10 -15
30 -15 20 0 30 -5 30 -15 0 -9 -9 -15 -25 -15 -23 0 -25 -4 -25 -46 0 -41 -2
-45 -22 -42 -20 3 -24 13 -36 82 -7 44 -11 85 -8 92 3 7 24 15 48 17 24 2 46
4 51 5 4 1 7 -9 7 -23z m1463 9 c28 -5 37 -11 37 -27 0 -17 -5 -19 -41 -14
-44 6 -51 -13 -8 -23 13 -3 25 -14 27 -24 4 -17 -1 -18 -37 -12 -37 6 -41 4
-41 -14 0 -16 7 -20 30 -20 23 0 30 -5 30 -19 0 -11 -3 -22 -8 -24 -12 -8
-112 15 -112 26 0 6 10 46 21 90 20 71 24 78 43 73 11 -3 38 -9 59 -12z
m-1341 -31 c22 -20 24 -56 3 -73 -25 -21 -45 -4 -45 38 0 54 11 64 42 35z
m-512 -78 c12 -19 26 -35 31 -35 6 0 8 -8 4 -19 -4 -12 3 -26 20 -42 13 -13
25 -29 25 -36 0 -21 -43 -43 -86 -43 -70 0 -94 51 -68 141 9 30 18 57 21 62
10 17 33 5 53 -28z m2098 -37 c24 -24 9 -68 -23 -68 -7 0 -35 32 -35 40 0 10
29 40 39 40 4 0 12 -5 19 -12z m1987 -16 c-3 -3 -11 0 -18 7 -9 10 -8 11 6 5
10 -3 15 -9 12 -12z m-4401 -24 c19 -27 21 -79 4 -97 -11 -11 -9 -15 6 -25 42
-26 66 -48 61 -57 -12 -18 -61 -9 -90 18 -23 22 -27 23 -20 8 14 -33 11 -69
-5 -73 -16 -3 -70 93 -70 124 0 8 20 23 45 34 50 21 61 50 20 50 -14 0 -42 -7
-62 -15 -44 -18 -43 -18 -43 0 0 23 60 55 102 55 27 0 41 -6 52 -22z m828 -20
c-9 -9 -12 -7 -12 12 0 19 3 21 12 12 9 -9 9 -15 0 -24z m-1164 -104 c26 -18
30 -39 5 -29 -10 4 -26 8 -36 10 -30 7 -40 17 -26 26 20 12 32 11 57 -7z
m4892 -28 c0 -3 -4 -8 -10 -11 -5 -3 -10 -1 -10 4 0 6 5 11 10 11 6 0 10 -2
10 -4z m-2019 -43 c28 -24 79 -112 79 -138 0 -6 -58 -11 -148 -13 -195 -4
-799 -29 -1137 -47 -555 -30 -627 -36 -675 -55 -162 -64 -1633 -772 -1729
-831 -11 -7 -23 -10 -27 -6 -4 4 -9 42 -12 85 -4 71 -2 81 19 105 24 27 793
404 1329 651 140 65 288 133 329 152 72 33 80 35 285 49 253 17 700 40 1071
55 149 6 297 12 330 13 33 2 104 4 157 5 92 2 98 1 129 -25z m-2896 -4 c4 -5
0 -18 -9 -28 -36 -39 -8 -56 36 -21 27 21 38 18 38 -11 0 -10 14 -27 30 -39
17 -12 30 -26 30 -31 0 -15 -56 -10 -70 6 -20 24 -43 19 -34 -7 12 -40 10 -53
-11 -53 -13 0 -29 17 -50 55 -21 37 -37 55 -50 55 -39 0 -27 31 22 58 54 30
59 31 68 16z m3241 -119 c41 0 46 -3 55 -29 9 -27 44 -51 73 -51 13 0 26 -21
26 -41 0 -5 -13 -9 -30 -9 -32 0 -53 -24 -65 -72 -4 -16 -8 -28 -10 -28 -1 0
-21 18 -44 41 -35 36 -46 41 -76 37 -33 -4 -35 -2 -41 29 -5 24 -2 39 10 52 9
10 16 29 16 43 0 30 9 41 28 33 7 -3 34 -5 58 -5z m-3468 -105 c32 -46 33 -47
58 -30 13 8 29 13 34 10 20 -12 9 -33 -30 -59 -40 -27 -60 -32 -60 -18 0 5
-20 35 -45 68 -24 32 -45 62 -45 66 0 4 8 14 17 23 15 15 18 15 27 2 6 -8 26
-36 44 -62z m5105 -42 c-7 -2 -19 -2 -25 0 -7 3 -2 5 12 5 14 0 19 -2 13 -5z
m-5323 -72 c23 -32 40 -66 40 -82 0 -58 -69 -98 -127 -74 -16 7 -47 33 -68 59
-31 38 -35 49 -25 61 19 23 33 18 62 -23 34 -49 71 -70 93 -52 23 19 18 41
-20 89 -39 49 -40 52 -23 69 17 17 22 14 68 -47z m7273 7 c9 -29 27 -86 42
-126 14 -40 30 -96 35 -125 6 -28 17 -67 26 -86 9 -19 17 -44 18 -57 0 -13 4
-24 9 -24 4 0 7 -9 7 -19 0 -11 4 -21 8 -23 5 -1 15 -24 23 -49 l15 -46 -35
-13 c-39 -14 -60 -20 -196 -50 -49 -12 -99 -23 -110 -26 l-20 -6 20 16 c18 14
18 15 3 16 -10 0 -18 4 -18 9 0 4 10 6 23 4 13 -3 28 1 34 9 9 11 5 16 -22 24
-19 6 -32 7 -29 2 3 -4 -2 -8 -10 -8 -19 0 -30 17 -16 25 5 3 10 21 10 38 0
24 -3 28 -10 17 -8 -13 -11 -13 -22 2 -7 9 -24 18 -38 20 -19 2 -24 8 -22 25
2 18 -1 20 -19 16 -20 -6 -21 -5 -8 9 7 9 17 14 22 11 4 -2 7 2 7 9 0 10 2 10
9 -1 5 -8 7 -20 4 -27 -6 -16 30 -35 74 -39 31 -3 33 -2 27 18 -7 23 -27 50
-24 32 2 -5 2 -18 1 -29 -1 -16 -3 -17 -18 -5 -9 8 -18 13 -20 12 -13 -10 -23
1 -23 26 0 32 -14 48 -25 30 -5 -7 -25 -9 -54 -6 -25 3 -38 3 -28 1 9 -3 17
-9 17 -14 0 -18 -62 13 -82 41 -23 31 -38 30 -39 -4 0 -12 -11 12 -24 54 -12
42 -30 89 -38 105 -8 16 -19 46 -25 66 -18 64 -7 70 263 137 132 33 245 60
251 61 6 0 18 -24 27 -52z m-3925 -45 c116 -252 282 -774 360 -1133 62 -283
67 -327 67 -610 0 -274 -11 -375 -61 -582 -83 -344 -298 -824 -531 -1185 -18
-28 -33 -54 -33 -57 0 -4 -50 -81 -111 -173 -115 -174 -208 -294 -210 -271 0
10 -2 10 -6 1 -6 -17 -24 -17 -18 0 3 7 -5 12 -22 13 -83 3 -670 276 -958 445
-407 238 -730 501 -966 784 -281 337 -510 771 -695 1317 -76 222 -189 585
-198 631 l-7 37 533 264 c293 145 650 318 793 384 l260 121 170 10 c265 16
733 39 1035 51 151 6 300 12 330 13 30 2 96 4 146 5 l91 2 31 -67z m2127 19
c-3 -3 -11 0 -18 7 -9 10 -8 11 6 5 10 -3 15 -9 12 -12z m-115 -62 c0 -5 -2
-10 -4 -10 -3 0 -8 5 -11 10 -3 6 -1 10 4 10 6 0 11 -4 11 -10z m35 0 c3 -5 1
-10 -4 -10 -6 0 -11 5 -11 10 0 6 2 10 4 10 3 0 8 -4 11 -10z m-1186 -69 c27
-10 70 -32 95 -49 25 -17 52 -29 60 -26 21 8 55 -13 76 -49 30 -49 24 -54 -17
-14 -46 47 -56 47 -33 -1 40 -82 62 -166 58 -218 -5 -53 -35 -123 -71 -162
-30 -33 -105 -70 -177 -86 -52 -12 -68 -12 -122 0 -55 13 -140 53 -113 54 6 0
19 -6 30 -13 32 -22 104 -36 157 -31 56 4 158 51 201 92 41 39 77 106 77 145
0 54 -10 51 -44 -14 -58 -112 -135 -169 -236 -177 -65 -5 -154 25 -190 63 -22
24 -24 24 -42 8 -29 -26 -49 -7 -85 83 -36 90 -46 158 -24 159 8 0 35 27 61
60 55 71 128 113 211 122 43 4 70 0 129 -20 l75 -26 -33 28 c-34 29 -126 61
-174 61 -35 0 -59 10 -52 21 10 16 132 10 183 -10z m1245 -29 c3 -5 -1 -9 -9
-9 -8 0 -12 4 -9 9 3 4 7 8 9 8 2 0 6 -4 9 -8z m-5744 -42 c29 -29 24 -47 -17
-69 -19 -10 -26 -8 -43 9 -11 11 -20 25 -20 30 0 13 37 50 50 50 6 0 19 -9 30
-20z m3964 1 c23 -26 17 -52 -16 -71 -46 -25 -92 17 -70 64 14 32 60 35 86 7z
m3213 -233 c-3 -8 -6 -5 -6 6 -1 11 2 17 5 13 3 -3 4 -12 1 -19z m-29 -23 c-3
-3 -9 2 -12 12 -6 14 -5 15 5 6 7 -7 10 -15 7 -18z m-7314 -21 c21 -21 20 -30
-6 -48 -41 -29 -81 20 -40 50 22 17 27 17 46 -2z m5180 -103 c38 -42 -13 -108
-58 -77 -33 22 -41 42 -28 70 14 32 60 35 86 7z m2666 -176 c-22 -23 -22 -26
-7 -43 10 -10 17 -23 17 -29 0 -6 7 -13 15 -17 18 -7 20 -36 3 -36 -7 0 -22
-3 -33 -6 -16 -4 -23 2 -32 26 -17 45 -47 38 -51 -12 -2 -26 -9 -37 -23 -41
-25 -7 -31 8 -33 80 l-1 55 70 23 c93 31 104 31 75 0z m-2599 -5 c40 -11 55
-22 216 -154 59 -48 114 -99 121 -113 11 -20 11 -38 3 -87 -6 -33 -17 -110
-26 -170 -16 -118 -29 -146 -78 -177 -33 -21 -52 -21 -237 -3 -52 5 -88 1
-174 -20 -59 -14 -111 -26 -115 -26 -4 0 -24 42 -46 93 -21 50 -40 93 -41 95
-1 2 -26 -4 -55 -12 -79 -24 -85 -22 -103 31 -24 70 -21 77 34 103 28 13 50
27 50 30 0 4 -11 33 -25 64 -14 31 -25 61 -25 66 0 5 57 39 128 74 112 58 130
71 155 111 54 85 132 119 218 95z m2367 -67 c-2 -12 -14 -19 -33 -21 -46 -5
-53 -20 -17 -33 22 -7 32 -17 32 -31 0 -17 -5 -19 -39 -13 -36 6 -40 4 -43
-17 -2 -12 -11 -24 -21 -26 -16 -3 -18 3 -15 64 l3 67 45 12 c69 19 92 18 88
-2z m-7613 -73 c4 -14 19 -22 46 -26 44 -7 44 -8 25 -56 -9 -21 -12 -50 -9
-76 l6 -41 -49 5 c-42 5 -54 2 -84 -21 l-35 -26 -7 23 c-3 13 -6 37 -7 55 -1
17 -5 35 -11 38 -6 4 -2 14 9 26 10 11 21 32 25 47 3 15 20 37 38 50 40 27 45
27 53 2z m4526 -160 c28 -16 44 -53 130 -304 87 -254 95 -305 55 -331 -43 -28
-58 -10 -112 132 -70 185 -144 410 -144 441 0 63 26 86 71 62z m-145 -67 c4
-16 36 -107 71 -203 74 -201 102 -290 96 -307 -3 -7 -15 -13 -27 -13 -20 0
-28 14 -65 128 -24 70 -51 142 -62 160 -11 19 -17 38 -13 43 3 5 -6 43 -20 84
-32 93 -34 135 -6 135 13 0 22 -9 26 -27z m-4065 -193 c25 -24 30 -37 27 -67
-4 -52 -23 -52 -37 2 -11 46 -15 48 -63 45 -32 -2 -39 23 -10 39 29 17 52 12
83 -19z m-197 -49 c61 -30 47 -44 -24 -25 -80 22 -192 15 -255 -16 -98 -47
-174 -153 -178 -246 -2 -35 -4 -39 -16 -26 -36 36 1 152 72 229 78 84 152 114
272 110 59 -2 94 -9 129 -26z m3 -82 c105 -50 150 -121 160 -255 4 -45 1 -70
-12 -97 -20 -42 -91 -111 -105 -102 -6 4 -10 1 -10 -6 0 -7 -3 -9 -7 -5 -4 3
9 23 29 44 36 38 66 98 54 109 -3 3 -6 -2 -7 -13 0 -18 -1 -18 -9 1 -6 14 -9
15 -10 5 0 -10 -5 -7 -14 8 -12 23 -13 23 -14 -13 -2 -48 -30 -85 -89 -118
-72 -39 -119 -43 -195 -18 -82 27 -130 60 -169 117 -31 45 -31 47 -15 74 9 16
16 45 16 67 1 77 59 166 133 205 86 44 167 43 264 -3z m6215 -173 c6 4 8 2 4
-4 -3 -6 -1 -23 5 -39 18 -48 20 -66 5 -54 -7 6 -16 26 -19 44 -4 17 -8 41
-10 52 -2 11 -2 14 0 7 3 -7 9 -9 15 -6z m-1319 -66 c16 -18 48 -99 86 -212
53 -160 113 -333 165 -477 9 -24 16 -54 16 -66 0 -23 -41 -75 -60 -75 -24 0
-79 30 -89 48 -10 18 -153 408 -237 644 -45 128 -32 167 58 168 28 0 42 -7 61
-30z m352 24 c21 -8 36 -39 85 -175 22 -63 54 -152 71 -199 17 -47 41 -114 55
-150 35 -97 39 -126 20 -155 -23 -35 -77 -35 -101 1 -29 45 -225 589 -225 627
0 39 52 67 95 51z m1025 -144 c12 -38 21 -72 21 -75 -1 -3 5 -18 14 -35 8 -16
15 -37 14 -47 0 -13 -3 -12 -11 7 -26 59 -75 220 -68 220 5 0 18 -31 30 -70z
m-1672 -85 c10 -13 25 -45 32 -70 12 -44 30 -70 30 -44 0 22 33 49 60 49 15 0
36 -10 48 -23 21 -22 102 -243 102 -277 0 -10 -9 -25 -20 -35 -18 -17 -25 -17
-56 -6 -20 7 -38 10 -42 7 -3 -4 5 -38 18 -77 26 -73 22 -100 -13 -107 -22 -4
-29 12 -128 296 -90 256 -99 296 -76 305 21 9 25 8 45 -18z m539 -11 c24 -38
102 -274 96 -291 -3 -8 -17 -19 -31 -24 -38 -15 -65 18 -112 137 -48 121 -58
168 -40 189 21 25 67 19 87 -11z m413 -39 c18 -48 -23 -105 -75 -105 -40 0
-75 111 -42 138 35 28 101 10 117 -33z m804 -110 c9 -27 11 -44 6 -39 -6 6
-18 33 -26 60 -19 62 -2 45 20 -21z m-6854 -53 c47 -38 -5 -102 -59 -72 -25
13 -27 47 -4 72 20 23 35 23 63 0z m6880 -27 c0 -8 8 -19 18 -24 9 -6 12 -11
5 -11 -6 0 -9 -10 -7 -22 3 -17 0 -15 -10 7 -22 49 -30 78 -17 71 6 -4 11 -13
11 -21z m-1987 -12 c18 -34 107 -287 107 -301 0 -12 -39 -27 -48 -18 -3 4 -16
36 -28 73 -15 46 -29 69 -43 75 -11 4 -23 20 -26 35 -3 15 -13 50 -20 76 -11
35 -12 54 -5 68 15 28 47 24 63 -8z m3267 -53 c7 -16 19 -30 26 -30 10 0 13
-7 9 -22 -3 -13 1 -43 10 -67 8 -24 15 -47 15 -51 0 -13 -229 -65 -239 -55
-10 11 -73 196 -69 201 6 5 193 52 214 53 15 1 25 -8 34 -29z m-7073 -110 c19
-47 55 -143 80 -214 l47 -129 -23 -19 c-22 -17 -25 -17 -42 -2 -10 9 -39 82
-65 163 -89 278 -92 295 -52 289 16 -2 29 -24 55 -88z m5839 35 c6 -19 7 -32
3 -30 -10 7 -29 65 -21 65 4 0 12 -16 18 -35z m-6080 -50 c90 -44 140 -149
115 -242 -23 -89 -66 -116 -263 -169 -482 -128 -603 -156 -656 -150 -241 28
-290 322 -68 405 39 14 433 115 721 185 35 8 99 -4 151 -29z m6132 -88 c6 -21
6 -37 2 -37 -5 0 -12 16 -16 35 -3 19 -10 38 -15 41 -5 3 -9 10 -9 15 0 21 29
-19 38 -54z m23 -74 c20 -51 28 -84 19 -78 -5 3 -13 20 -19 38 -5 18 -12 40
-16 50 -4 9 -4 17 -1 17 4 0 11 -12 17 -27z m-873 -76 c6 -28 -16 -49 -39 -36
-19 10 -25 39 -12 53 13 13 48 1 51 -17z m-1182 -32 c36 -23 54 -57 96 -178
41 -120 46 -168 24 -220 -42 -102 -178 -82 -236 33 -9 19 -34 86 -55 148 -34
102 -37 116 -26 152 6 21 26 51 43 65 28 24 38 27 81 21 27 -3 60 -12 73 -21z
m2108 -26 c-2 -3 1 -21 6 -40 9 -31 8 -32 -5 -15 -8 11 -15 28 -15 37 0 10 -3
25 -7 35 -6 16 -5 17 9 4 9 -8 14 -18 12 -21z m-1339 -65 c288 -75 399 -407
202 -604 -23 -23 -58 -50 -78 -61 -37 -18 -37 -18 -32 2 6 21 5 21 -15 3 -16
-13 -18 -20 -9 -26 8 -5 6 -8 -6 -8 -18 0 -19 -8 -15 -107 l3 -108 -55 2 c-30
1 -84 5 -120 10 l-65 8 4 133 3 132 -28 0 c-16 1 -46 7 -66 14 -21 8 -35 9
-32 4 16 -25 -38 16 -70 54 -93 109 -108 287 -33 405 25 40 91 104 126 122 72
39 193 50 286 25z m1365 -24 c0 -5 -2 -10 -4 -10 -3 0 -8 5 -11 10 -3 6 -1 10
4 10 6 0 11 -4 11 -10z m-5827 -204 c13 -14 56 -125 111 -287 117 -346 119
-355 101 -390 -26 -50 -89 -51 -123 -1 -10 15 -54 131 -97 257 -43 127 -88
259 -101 294 -13 35 -24 74 -24 87 0 60 90 87 133 40z m232 -56 c22 -43 105
-279 105 -300 0 -9 -8 -24 -19 -34 -25 -22 -34 -11 -72 95 -17 46 -39 102 -49
124 -22 47 -35 109 -26 130 9 26 44 17 61 -15z m-617 -13 c24 -24 65 -138 158
-436 54 -172 60 -206 46 -227 -11 -17 -48 -34 -74 -34 -47 1 -65 27 -104 152
-14 45 -57 169 -94 273 -91 253 -89 238 -51 276 27 26 37 30 64 25 18 -4 42
-17 55 -29z m-360 -140 c12 -13 39 -79 62 -152 22 -72 59 -184 80 -250 48
-143 49 -168 14 -191 -24 -16 -27 -16 -52 3 -18 13 -35 43 -50 89 -13 38 -53
152 -88 254 -64 185 -74 236 -52 258 19 19 63 14 86 -11z m609 -32 c22 -39 93
-250 93 -276 0 -21 -32 -49 -56 -49 -29 0 -47 26 -80 121 -15 41 -35 97 -45
124 -23 62 -24 89 -3 110 28 27 66 15 91 -30z m-377 -115 c18 -34 80 -224 80
-246 0 -24 -14 -39 -48 -47 -27 -6 -57 28 -68 76 -3 18 -20 65 -36 105 -34 85
-34 121 1 139 28 13 55 4 71 -27z m4389 19 c38 -13 64 -58 55 -94 -14 -57
-100 -75 -148 -30 -14 13 -26 35 -26 47 0 30 26 67 54 78 28 12 28 12 65 -1z
m-576 -98 c31 -22 80 -44 107 -51 28 -7 50 -16 50 -21 0 -34 -33 -81 -65 -95
l-35 -14 7 -88 6 -87 -60 70 c-59 69 -62 71 -102 67 -29 -3 -50 2 -76 18 -19
12 -35 24 -35 27 0 3 16 23 34 45 39 45 66 114 66 166 0 34 0 34 23 18 12 -9
48 -34 80 -55z m-6174 -62 c17 -33 31 -73 31 -87 -1 -26 -1 -25 -16 8 -21 45
-54 140 -50 140 2 0 18 -27 35 -61z m3501 16 c14 -7 35 -24 47 -37 24 -26 88
-202 98 -272 25 -164 -147 -226 -241 -88 -32 47 -106 281 -99 311 16 67 78
116 135 105 19 -3 46 -12 60 -19z m-1438 -62 c43 -49 24 -113 -34 -113 -41 0
-68 25 -68 63 0 58 66 90 102 50z m5721 -21 c21 -19 23 -68 1 -76 -9 -3 -43
-6 -77 -6 -34 0 -79 -4 -100 -9 -20 -5 -39 -5 -42 -1 -7 12 105 99 140 109 34
9 52 5 78 -17z m-7718 -92 c-3 -4 2 -13 10 -20 12 -10 13 -16 3 -28 -11 -13
-10 -15 3 -10 13 5 16 2 11 -14 -4 -16 -2 -19 8 -13 10 6 12 3 8 -13 -4 -13
-1 -22 5 -22 8 0 8 -3 -1 -8 -10 -7 -9 -16 2 -48 8 -21 15 -33 15 -26 1 6 5
12 11 12 5 0 7 -13 4 -28 -3 -16 1 -51 9 -79 9 -28 12 -55 9 -59 -4 -4 -1 -4
6 0 7 5 11 15 7 23 -5 14 -3 14 11 2 10 -8 12 -15 5 -17 -6 -2 -11 -14 -11
-27 0 -22 5 -37 31 -100 4 -11 15 -42 23 -70 8 -27 21 -67 30 -87 9 -20 27
-77 40 -125 21 -81 46 -158 67 -208 5 -11 13 -41 18 -66 6 -25 17 -58 26 -75
8 -16 18 -46 21 -66 4 -21 10 -35 15 -32 5 3 6 -1 4 -8 -3 -8 4 -40 15 -73 11
-33 19 -47 16 -32 -2 18 0 25 6 19 5 -5 11 -25 12 -43 4 -43 40 -161 78 -257
16 -41 31 -83 32 -95 1 -12 5 -29 9 -37 3 -8 8 -26 10 -40 1 -14 8 -35 15 -47
7 -12 25 -72 41 -133 28 -107 40 -140 41 -109 1 22 50 -133 50 -158 0 -13 4
-23 9 -23 5 0 9 -10 8 -22 0 -13 3 -32 7 -43 7 -16 6 -17 -4 -5 -9 12 -10 8
-6 -20 8 -51 5 -42 -94 270 -50 157 -108 339 -130 405 -21 66 -91 284 -155
485 -64 201 -156 489 -204 640 -122 380 -132 411 -124 424 3 6 2 8 -2 3 -5 -4
-17 18 -26 50 -14 44 -15 59 -6 65 11 7 3 12 -15 9 -13 -2 -9 17 5 22 13 4 31
-29 22 -43z m6875 20 c49 -49 -8 -113 -71 -80 -38 21 -13 100 33 100 10 0 27
-9 38 -20z m-234 -16 c20 -19 24 -31 19 -51 -13 -53 -77 -71 -115 -33 -26 26
-25 58 2 87 28 30 63 29 94 -3z m-6546 -89 c0 -5 -5 -3 -10 5 -5 8 -10 20 -10
25 0 6 5 3 10 -5 5 -8 10 -19 10 -25z m2475 -71 c18 -18 16 -33 -7 -47 -35
-22 -66 21 -36 51 16 16 23 15 43 -4z m4874 -114 c24 -72 41 -137 38 -144 -3
-7 -73 -29 -159 -50 -84 -21 -161 -40 -170 -42 -17 -5 -13 -21 26 -131 3 -8
52 1 162 28 86 22 160 36 164 32 4 -4 26 -62 48 -128 30 -87 38 -122 29 -126
-7 -4 -79 -23 -162 -44 -82 -20 -152 -38 -153 -40 -2 -2 6 -34 18 -72 l23 -69
165 48 c91 26 169 48 173 48 8 0 34 -62 43 -106 l7 -31 -68 -18 c-54 -15 -63
-20 -47 -27 28 -13 64 -70 75 -118 12 -51 -1 -103 -33 -137 l-23 -24 50 -47
c28 -26 68 -61 89 -78 22 -17 36 -35 33 -41 -3 -5 -34 -18 -67 -28 l-61 -18
-82 80 -82 80 -44 -13 c-24 -8 -46 -15 -48 -17 -2 -2 10 -44 27 -93 16 -48 26
-91 22 -95 -10 -9 -112 -42 -117 -37 -2 2 -40 104 -85 227 -101 279 -93 264
-128 245 -37 -19 -39 -18 -56 14 -17 32 -309 932 -304 937 2 2 628 160 649
164 3 1 24 -58 48 -129z m-1626 109 c37 -17 50 -53 32 -89 -18 -35 -47 -46
-84 -30 -53 21 -61 92 -14 119 23 13 37 13 66 0z m-5584 -334 c44 -137 112
-351 151 -475 39 -124 75 -237 80 -252 5 -17 5 -28 0 -28 -5 0 -32 73 -60 163
-28 89 -100 313 -159 497 -60 184 -111 351 -115 370 l-6 35 14 -30 c8 -16 51
-142 95 -280z m2689 253 c4 -34 -27 -54 -58 -38 -21 11 -25 27 -14 55 5 11 16
15 38 13 25 -2 32 -8 34 -30z m1258 -103 c19 -9 51 -19 70 -22 35 -6 36 -7 29
-42 -8 -43 -16 -53 -58 -67 -32 -11 -32 -11 -37 -92 -3 -44 -8 -83 -11 -86 -3
-3 -25 25 -50 63 l-44 69 -52 -2 c-42 -1 -56 3 -77 23 l-26 25 39 40 c43 46
65 84 76 136 11 53 13 53 61 11 24 -21 60 -46 80 -56z m2509 3 c-4 -13 -56
-124 -116 -248 -60 -124 -109 -230 -109 -235 0 -6 96 -108 213 -228 l213 -219
45 7 44 6 17 -42 c10 -23 16 -45 13 -49 -2 -4 -61 -22 -130 -41 -83 -23 -125
-39 -125 -48 0 -26 24 -93 35 -97 6 -3 50 7 98 21 48 14 93 25 101 25 7 0 18
-19 25 -41 15 -51 17 -50 -101 -80 -99 -26 -97 -23 -63 -105 l13 -32 124 34
c67 19 124 34 125 34 8 1 30 -91 22 -96 -13 -8 -349 -104 -364 -104 -7 0 -15
8 -18 18 -40 130 -161 452 -179 477 -13 19 -90 102 -172 185 l-148 152 -19
-28 c-10 -16 -19 -38 -19 -49 0 -11 22 -87 49 -170 53 -166 47 -158 132 -141
l37 8 -49 -130 c-26 -71 -51 -140 -54 -153 -6 -26 -12 -21 205 -159 38 -24 67
-47 62 -51 -16 -15 -114 -41 -135 -35 -12 3 -71 37 -132 75 -60 38 -111 68
-112 67 -2 -2 10 -47 26 -100 l29 -97 -22 -8 c-11 -5 -40 -12 -62 -15 l-42 -7
-16 43 c-9 24 -47 138 -86 253 -59 179 -67 212 -54 221 7 6 14 15 14 19 0 4
-66 207 -146 451 -80 244 -146 456 -147 471 -2 26 1 27 128 59 72 18 137 33
146 33 13 1 29 -37 69 -159 29 -88 55 -160 59 -160 3 0 49 88 101 196 64 133
101 199 115 204 17 7 334 86 358 89 5 0 5 -9 2 -21z m-3515 -78 c86 -44 150
-113 150 -162 0 -15 -4 -28 -8 -28 -5 0 -17 -26 -27 -57 -24 -81 -53 -143 -65
-143 -5 0 -10 -6 -10 -12 -1 -19 -39 -43 -92 -59 -27 -7 -48 -17 -48 -21 0
-15 -54 -8 -95 12 -43 21 -96 95 -117 164 -10 30 -16 36 -40 36 -17 0 -28 -5
-27 -12 3 -27 -14 -58 -30 -56 -25 4 -31 19 -31 74 0 116 73 223 185 270 78
32 186 30 255 -6z m-722 -16 c37 -26 27 -70 -20 -87 -19 -7 -68 27 -68 47 0
16 38 56 53 56 7 0 23 -7 35 -16z m1187 -69 c31 -30 32 -71 3 -102 -45 -48
-138 -14 -138 50 0 70 85 103 135 52z m873 -21 c15 -10 22 -25 22 -49 0 -59
-77 -88 -120 -45 -26 26 -25 58 2 87 25 27 64 30 96 7z m909 -323 c79 -98 202
-254 274 -347 72 -93 165 -206 206 -251 87 -97 99 -82 -105 -134 l-134 -34
-37 44 -37 44 -182 -44 -182 -44 0 -52 c0 -41 -4 -55 -19 -62 -10 -6 -22 -7
-26 -3 -8 7 -2 -29 11 -75 7 -24 10 -23 -174 -64 -115 -25 -112 -21 -77 -105
l13 -31 108 23 c59 13 111 21 115 17 16 -19 29 -77 18 -83 -5 -4 -55 -17 -109
-29 l-99 -22 14 -46 c8 -25 18 -50 23 -55 7 -7 127 13 225 37 21 6 26 1 41
-36 9 -23 13 -45 9 -50 -9 -9 -375 -100 -380 -95 -2 2 -36 104 -74 227 -39
123 -75 231 -80 240 -6 12 -20 15 -65 11 l-56 -5 -118 118 -119 119 -41 -13
c-35 -10 -40 -15 -35 -34 4 -12 21 -66 38 -119 26 -82 35 -98 52 -98 39 0 95
-21 125 -47 80 -67 93 -192 27 -246 l-22 -18 95 -88 94 -89 -39 -10 c-111 -29
-104 -32 -180 55 -38 43 -72 82 -76 86 -3 5 -33 3 -66 -3 l-60 -12 30 -95 c16
-52 27 -97 24 -99 -3 -3 -31 -12 -63 -20 -68 -18 -64 -22 -99 96 -15 47 -51
159 -82 249 -48 141 -53 165 -40 172 14 8 12 19 -10 92 -34 111 -205 644 -236
737 l-26 75 22 6 c12 4 143 39 292 79 248 67 275 72 345 68 113 -7 201 -57
263 -151 91 -137 89 -316 -6 -423 l-39 -44 27 -33 c15 -17 64 -70 110 -118
l82 -85 6 290 c4 160 7 370 8 466 0 96 3 193 7 214 l7 39 150 39 c82 21 151
41 154 43 17 18 53 -17 178 -174z m-5170 137 c-3 -8 -6 -5 -6 6 -1 11 2 17 5
13 3 -3 4 -12 1 -19z m3576 11 c29 -16 37 -28 37 -60 0 -39 -32 -63 -76 -56
-20 3 -42 11 -50 18 -22 18 -17 57 11 84 27 28 45 31 78 14z m-3555 -75 c-3
-14 -5 -12 -10 9 -3 19 -2 25 4 19 6 -6 8 -18 6 -28z m2357 -14 c12 -13 13
-23 6 -43 -21 -53 -101 -43 -101 13 0 53 57 71 95 30z m870 -77 c99 -43 106
-49 98 -82 -9 -39 -32 -81 -48 -87 -8 -3 -70 21 -139 54 -68 33 -133 63 -145
67 -20 6 -19 9 19 65 l40 59 48 -20 c26 -12 83 -37 127 -56z m-3176 -58 c0 -5
-4 -3 -9 5 -5 8 -9 22 -9 30 0 16 17 -16 18 -35z m3420 -308 c24 -70 41 -131
37 -134 -3 -4 -79 -26 -168 -50 -88 -23 -163 -45 -166 -48 -7 -6 28 -135 37
-135 3 0 66 16 139 35 73 20 137 33 142 30 5 -3 27 -62 50 -131 34 -100 40
-128 29 -135 -7 -4 -72 -22 -144 -40 -71 -17 -133 -34 -137 -36 -4 -2 2 -29
13 -61 11 -31 20 -67 21 -78 2 -21 6 -21 83 -16 101 6 146 -8 182 -55 33 -43
38 -120 10 -151 -17 -19 -17 -20 10 -27 68 -16 123 -84 123 -150 0 -80 -47
-131 -147 -160 -84 -24 -316 -66 -324 -58 -7 7 -149 463 -149 478 0 3 -10 5
-23 5 -25 0 -5 -57 -227 623 -45 137 -80 250 -78 252 2 1 111 33 243 70 132
36 267 75 300 85 96 31 94 32 144 -113z m-3352 71 c-3 -8 -6 -5 -6 6 -1 11 2
17 5 13 3 -3 4 -12 1 -19z m2577 -5 c14 -8 -2 -18 -83 -51 -56 -23 -109 -42
-119 -42 -44 0 -56 56 -21 91 20 20 30 21 114 17 50 -3 99 -9 109 -15z m-2400
-365 c84 -262 176 -562 176 -573 0 -32 -26 38 -85 225 -171 541 -173 550 -161
550 3 0 34 -91 70 -202z m5052 -116 c15 -23 238 -277 318 -362 l61 -64 -63
-19 -64 -19 -36 35 -37 35 -102 -25 c-94 -23 -103 -27 -103 -48 0 -54 -16 -71
-79 -87 -61 -16 -61 -16 -61 6 0 27 49 517 53 530 3 8 66 32 92 35 6 1 15 -7
21 -17z m-5722 -141 c3 -5 -3 -11 -14 -14 -24 -6 -27 -25 -4 -23 9 0 19 -5 21
-12 3 -7 -1 -10 -11 -6 -9 3 -16 1 -16 -5 0 -6 9 -11 19 -11 33 0 33 -17 -1
-29 -17 -6 -32 -10 -33 -9 -1 2 -9 24 -18 49 -15 46 -14 47 6 57 28 13 44 14
51 3z m-112 -56 c5 -26 -6 -35 -15 -12 -3 7 -6 5 -6 -5 -1 -10 5 -18 13 -18 7
0 19 -6 25 -14 9 -11 6 -15 -16 -19 -29 -5 -39 3 -49 41 -7 24 10 52 31 52 7
0 15 -11 17 -25z m-112 -29 c0 -7 12 -25 26 -40 l27 -26 -51 0 -50 0 10 33 c6
17 13 38 14 45 5 16 24 6 24 -12z m303 -413 c18 -37 12 -58 -21 -72 l-27 -13
23 22 c36 34 26 80 -18 80 -35 0 -41 -15 -24 -59 17 -41 17 -41 2 -41 -6 0 -8
3 -5 7 4 3 3 11 -2 17 -15 20 -20 60 -9 73 6 7 23 13 39 13 21 0 32 -7 42 -27z
m5947 23 c0 -2 -16 -41 -35 -87 -20 -45 -34 -83 -33 -84 2 -2 39 -25 82 -52
44 -27 81 -54 83 -59 2 -5 -16 -15 -39 -21 -38 -10 -45 -9 -72 12 -38 28 -96
58 -102 52 -2 -2 3 -24 11 -48 15 -40 14 -45 -2 -56 -9 -7 -27 -13 -38 -13
-19 0 -28 18 -70 145 -27 79 -47 146 -44 149 2 2 18 7 35 10 31 7 33 5 50 -41
9 -26 20 -52 24 -56 4 -5 20 22 36 60 34 83 27 74 66 83 43 10 48 11 48 6z
m-326 -171 c21 -67 31 -85 46 -85 26 0 37 -40 16 -56 -12 -8 -15 -19 -10 -39
7 -30 -6 -45 -42 -45 -16 0 -23 8 -27 30 -8 35 -27 38 -103 15 -79 -24 -85 1
-31 131 50 118 50 118 83 125 16 4 31 7 34 8 3 0 18 -37 34 -84z m-4838 40
c-1 -39 -11 -46 -19 -14 -4 16 6 42 19 49 0 0 0 -16 0 -35z m11 -87 c-3 -8 -6
-5 -6 6 -1 11 2 17 5 13 3 -3 4 -12 1 -19z m22 -40 c-1 -40 -1 -41 -9 -15 -8
26 -4 57 6 57 2 0 4 -19 3 -42z m40 -135 c0 -25 -1 -25 -8 -8 -5 11 -7 23 -4
28 8 14 13 7 12 -20z m32 -93 c5 0 9 8 9 17 0 9 3 14 6 10 4 -3 3 -14 -1 -24
-4 -10 -8 -31 -7 -48 0 -19 -1 -22 -4 -10 -3 11 -12 37 -20 58 -8 20 -14 43
-13 50 1 6 6 -3 11 -20 6 -18 15 -33 19 -33z m-691 -60 c0 -11 -7 -20 -15 -20
-15 0 -21 21 -8 33 12 13 23 7 23 -13z m730 -90 c0 -8 7 -24 15 -34 16 -22 21
-56 6 -40 -10 9 -52 128 -50 141 1 12 28 -50 29 -67z m-650 16 c0 -2 -3 -11
-6 -20 -9 -23 -24 -20 -24 4 0 11 7 20 15 20 8 0 15 -2 15 -4z m618 -55 c20
-44 52 -168 51 -193 -1 -20 -2 -21 -6 -3 -14 69 -14 69 -23 55 -6 -10 -11 2
-16 38 -3 29 -10 52 -15 52 -5 0 -6 7 -3 15 4 8 2 15 -2 15 -5 0 -9 11 -9 25
0 33 7 32 23 -4z m73 -54 c-10 -9 -11 -8 -5 6 3 10 9 15 12 12 3 -3 0 -11 -7
-18z m19 -84 c0 -22 -8 -14 -19 20 -10 29 -9 30 4 13 8 -11 15 -26 15 -33z m0
-147 c0 -2 -7 -7 -16 -10 -8 -3 -12 -2 -9 4 6 10 25 14 25 6z m9 -59 l-1 -32
-13 30 c-13 31 -11 50 6 40 5 -4 9 -21 8 -38z m-614 -214 c6 -55 4 -64 -15
-83 -22 -22 -35 -23 -105 -7 -31 6 -23 19 38 60 52 34 57 41 57 74 0 57 17 27
25 -44z m175 -29 c11 -12 11 -18 -2 -31 -19 -18 -38 -10 -38 16 0 33 20 40 40
15z m593 -651 c-7 -3 -13 -11 -13 -19 0 -9 -4 -13 -10 -9 -6 3 -5 15 2 31 9
18 14 22 22 13 8 -8 7 -13 -1 -16z m-31 -51 c-7 -2 -10 -8 -6 -13 3 -5 0 -9
-5 -9 -13 0 -13 3 -5 24 3 9 11 13 17 9 8 -5 7 -8 -1 -11z m-1107 -77 c71 -70
-32 -187 -120 -137 -36 22 -59 64 -49 94 21 67 120 93 169 43z"/>
<path d="M4996 8804 c-9 -22 -8 -24 9 -24 8 0 15 6 15 14 0 22 -17 28 -24 10z"/>
<path d="M3846 8645 c-29 -30 -13 -51 30 -41 19 5 25 12 22 29 -4 27 -30 33
-52 12z"/>
<path d="M9530 7915 c0 -2 9 -20 20 -40 11 -19 20 -37 20 -40 0 -3 0 -15 1
-27 l0 -23 9 22 c7 17 3 33 -16 68 -23 41 -34 54 -34 40z"/>
<path d="M9686 7763 c-6 -14 -5 -15 5 -6 7 7 10 15 7 18 -3 3 -9 -2 -12 -12z"/>
<path d="M9688 7733 c7 -3 16 -2 19 1 4 3 -2 6 -13 5 -11 0 -14 -3 -6 -6z"/>
<path d="M10010 7700 c0 -5 5 -10 11 -10 5 0 7 5 4 10 -3 6 -8 10 -11 10 -2 0
-4 -4 -4 -10z"/>
<path d="M9876 7612 c-2 -4 4 -8 14 -8 10 0 16 4 14 8 -3 4 -9 8 -14 8 -5 0
-11 -4 -14 -8z"/>
<path d="M9958 7503 c7 -3 16 -2 19 1 4 3 -2 6 -13 5 -11 0 -14 -3 -6 -6z"/>
<path d="M5645 7953 c-426 -18 -1010 -46 -1128 -53 -172 -11 -137 1 -571 -207
-310 -149 -977 -481 -988 -492 -5 -4 17 -94 47 -201 230 -808 512 -1356 910
-1769 198 -206 466 -401 835 -608 242 -136 707 -350 736 -339 34 13 287 382
436 636 310 526 437 941 438 1426 0 414 -100 846 -336 1447 l-66 167 -122 -2
c-66 -1 -152 -3 -191 -5z m217 -254 c52 -123 181 -512 217 -654 16 -66 39
-174 51 -240 22 -131 46 -424 36 -450 -3 -9 -19 -21 -36 -26 -16 -6 -27 -15
-24 -20 3 -6 11 -5 20 2 11 9 14 8 14 -4 0 -9 -8 -21 -17 -26 -17 -10 -17 -10
1 -11 12 0 16 -5 12 -15 -3 -8 -1 -15 3 -15 5 0 8 -59 6 -131 -5 -150 -11
-167 -77 -198 -31 -14 -36 -19 -19 -18 13 1 26 -4 29 -12 3 -9 0 -11 -8 -6 -9
5 -11 4 -6 -4 4 -6 9 -44 11 -84 3 -55 -2 -87 -18 -137 -20 -59 -27 -67 -66
-87 -51 -26 -65 -38 -35 -31 26 7 26 -12 0 -41 -11 -12 -16 -29 -13 -41 3 -11
2 -18 -3 -15 -4 3 -11 -2 -14 -11 -3 -8 -2 -12 4 -9 6 3 10 2 10 -4 0 -5 -6
-12 -12 -14 -8 -3 -5 -6 5 -6 45 -2 -141 -287 -305 -469 -116 -129 -224 -222
-257 -222 -75 0 -327 56 -489 109 -95 31 -301 121 -302 132 0 3 42 16 93 27
90 21 117 27 187 39 43 7 70 20 70 34 0 5 -10 3 -23 -6 -20 -13 -24 -13 -24
-1 0 8 6 12 14 9 9 -3 11 0 7 10 -3 9 0 24 6 34 10 16 11 16 6 -5 -4 -20 -2
-21 11 -10 13 11 12 15 -13 36 -25 20 -36 22 -84 18 -139 -14 -408 -36 -440
-36 -26 0 -45 9 -75 36 -22 20 -33 31 -24 25 13 -9 24 -4 58 31 33 32 53 43
89 49 143 23 198 34 203 42 4 5 12 6 19 2 8 -5 11 -3 8 6 -3 8 1 26 8 41 12
24 12 28 -4 37 -15 9 -14 11 8 11 25 1 25 1 3 10 -13 5 -92 5 -190 0 -463 -24
-450 -24 -463 0 -7 13 -8 20 -2 16 13 -8 63 14 56 25 -2 4 5 13 16 19 11 6 20
17 20 24 0 17 18 20 240 46 172 20 304 46 178 35 -36 -3 -58 -1 -58 5 0 5 8
11 18 11 15 1 15 2 1 6 -23 6 -21 122 1 140 13 11 10 16 -18 41 l-34 29 44 7
43 8 -124 43 c-69 24 -129 41 -134 38 -6 -3 -7 -1 -4 4 4 6 -8 17 -26 24 -129
51 -427 206 -427 220 0 4 32 10 72 14 60 6 77 12 100 35 32 32 35 62 12 119
-31 77 -93 90 -190 41 -32 -16 -60 -27 -62 -25 -2 2 15 43 37 90 22 48 34 82
27 76 -11 -9 -16 -9 -22 0 -4 7 -3 9 4 5 6 -3 22 8 35 26 33 45 43 63 29 54
-5 -3 -13 0 -16 6 -2 7 -4 2 -3 -11 2 -24 -26 -51 -40 -37 -4 4 1 13 12 19 19
11 18 12 -10 17 -17 3 -34 15 -41 27 -6 13 -19 32 -29 43 -18 19 -17 20 3 20
12 0 22 5 22 10 0 6 -21 10 -46 10 -41 0 -45 -2 -39 -20 4 -11 2 -20 -4 -20
-6 0 -11 18 -11 40 0 22 -4 40 -10 40 -5 0 -10 11 -10 25 l0 26 -77 -6 c-43
-3 -89 -9 -103 -11 -14 -3 -22 -2 -18 2 4 4 24 10 44 13 25 4 38 12 40 24 1 9
-2 15 -7 12 -5 -3 -24 -3 -44 1 -34 6 -35 8 -35 50 0 37 3 44 20 44 24 0 25 4
4 35 -8 13 -22 21 -29 19 -7 -3 -16 3 -20 15 -5 18 -8 19 -21 7 -14 -14 -54
-11 -54 4 0 5 -9 6 -20 3 -11 -3 -20 -9 -20 -13 0 -5 -9 -12 -20 -15 -11 -3
-20 -11 -20 -16 0 -6 4 -8 9 -5 16 10 19 -19 5 -39 -13 -17 -14 -17 -20 12 -4
19 -12 30 -22 29 -11 -1 -22 22 -39 84 -12 47 -21 91 -18 97 2 7 282 152 622
321 l618 309 225 12 c124 6 380 18 570 26 190 8 374 16 410 18 36 2 96 3 135
3 l70 -1 37 -86z m-2522 -757 c0 -16 -42 -34 -53 -23 -8 8 -6 11 6 11 9 0 17
5 17 10 0 6 7 10 15 10 8 0 15 -3 15 -8z m20 -52 c0 -5 -4 -10 -10 -10 -5 0
-10 5 -10 10 0 6 5 10 10 10 6 0 10 -4 10 -10z m110 -114 c0 -2 -7 -6 -15 -10
-8 -3 -15 -1 -15 4 0 6 7 10 15 10 8 0 15 -2 15 -4z m157 -108 c-3 -8 -6 -5
-6 6 -1 11 2 17 5 13 3 -3 4 -12 1 -19z m773 -873 c0 -9 -6 -12 -16 -8 -13 5
-13 7 -2 14 17 11 18 11 18 -6z m93 -2 c-7 -2 -19 -2 -25 0 -7 3 -2 5 12 5 14
0 19 -2 13 -5z"/>
<path d="M3484 7055 c-10 -8 -14 -15 -8 -15 5 0 19 7 30 15 10 8 14 15 8 15
-5 0 -19 -7 -30 -15z"/>
<path d="M4681 7034 c-212 -46 -389 -215 -430 -412 -37 -177 17 -350 154 -488
80 -80 146 -121 258 -159 344 -115 728 98 779 433 60 386 -343 717 -761 626z
m214 -154 c201 -29 351 -179 363 -364 8 -121 -31 -221 -116 -298 -76 -69 -179
-108 -285 -108 -70 0 -177 28 -156 41 8 4 14 14 14 21 0 9 28 15 100 19 122 7
194 33 253 89 65 63 77 92 77 190 0 75 -4 91 -30 139 -107 195 -382 235 -538
79 -46 -46 -52 -49 -73 -37 -31 16 -30 25 4 80 47 73 123 122 226 144 76 17
76 17 161 5z m-10 -191 c24 -6 63 -27 86 -47 124 -107 95 -271 -59 -332 -105
-41 -252 30 -282 138 -14 52 -12 81 9 128 21 46 72 90 128 110 47 16 63 17
118 3z"/>
<path d="M4733 6173 c9 -2 23 -2 30 0 6 3 -1 5 -18 5 -16 0 -22 -2 -12 -5z"/>
<path d="M4764 6601 c-45 -27 -64 -59 -64 -106 0 -45 26 -92 62 -111 31 -18
113 -17 147 0 60 31 85 110 51 164 -42 68 -132 92 -196 53z m104 -77 c49 -34
-3 -113 -53 -80 -29 19 -31 61 -3 80 12 9 25 16 28 16 3 0 16 -7 28 -16z"/>
<path d="M5615 7020 c17 -11 35 -20 40 -20 6 0 -3 9 -20 20 -16 11 -34 20 -40
20 -5 0 4 -9 20 -20z"/>
<path d="M3382 6998 c-18 -11 -31 -23 -28 -25 5 -5 76 35 76 43 0 8 -15 2 -48
-18z"/>
<path d="M3438 6963 c7 -3 16 -2 19 1 4 3 -2 6 -13 5 -11 0 -14 -3 -6 -6z"/>
<path d="M5720 6967 c0 -2 29 -23 64 -47 36 -24 63 -47 61 -51 -3 -3 -28 -9
-57 -12 -68 -7 -103 -23 -117 -54 -16 -35 -14 -69 9 -114 23 -44 57 -63 98
-52 30 7 164 69 161 75 -1 1 8 23 20 46 12 24 20 49 18 56 -3 6 -31 25 -63 40
-33 16 -84 45 -114 66 -67 45 -80 52 -80 47z"/>
<path d="M3784 6920 c-22 -9 -41 -40 -24 -40 6 0 10 -17 10 -39 0 -31 4 -40
22 -44 18 -5 19 -8 8 -22 -12 -15 -10 -16 16 -10 68 16 98 99 51 143 -24 23
-48 26 -83 12z"/>
<path d="M4548 5783 c6 -2 18 -2 25 0 6 3 1 5 -13 5 -14 0 -19 -2 -12 -5z"/>
<path d="M5170 5218 c0 -20 112 -335 123 -346 20 -20 64 -8 72 19 5 14 -6 55
-30 118 -21 53 -42 106 -46 119 -17 43 -32 72 -36 68 -3 -2 0 -13 6 -24 11
-20 12 -112 1 -112 -6 1 -61 112 -60 123 0 5 -7 15 -15 23 -8 9 -15 14 -15 12z"/>
<path d="M5240 5135 c0 -5 5 -17 10 -25 5 -8 10 -10 10 -5 0 6 -5 17 -10 25
-5 8 -10 11 -10 5z"/>
<path d="M6792 7814 c-56 -29 -92 -69 -92 -102 0 -17 5 -34 10 -37 6 -3 10 0
10 9 0 21 47 74 84 93 43 22 129 19 172 -6 31 -19 34 -19 34 -3 -1 51 -147 82
-218 46z"/>
<path d="M6987 7566 c-19 -28 -78 -50 -112 -42 -54 14 -76 -23 -26 -44 68 -28
159 -2 187 53 14 27 14 31 0 45 -15 15 -16 14 -16 -16 0 -21 -6 -35 -20 -42
-26 -14 -27 9 -4 45 9 14 14 25 11 25 -2 0 -12 -11 -20 -24z"/>
<path d="M10065 7280 c-3 -5 1 -10 9 -10 8 0 18 5 21 10 3 6 -1 10 -9 10 -8 0
-18 -4 -21 -10z"/>
<path d="M7273 6984 c-18 -8 -33 -17 -33 -22 0 -4 18 -56 39 -117 43 -121 40
-119 121 -92 19 6 39 10 43 9 5 -1 6 2 2 8 -3 5 -13 10 -21 10 -8 0 -12 5 -9
10 3 6 1 10 -4 10 -6 0 -11 14 -11 30 0 28 -3 30 -35 30 -20 0 -37 6 -39 13
-2 6 -10 33 -18 58 -13 41 -13 48 1 57 22 15 2 13 -36 -4z"/>
<path d="M2208 6580 c-67 -36 -105 -107 -74 -138 15 -15 16 -14 16 10 0 17 14
38 45 67 40 37 49 41 97 41 36 0 64 -7 87 -21 35 -21 59 -14 48 14 -17 45
-153 62 -219 27z"/>
<path d="M9985 5850 c-16 -4 -42 -11 -57 -14 -27 -6 -27 -7 -12 -41 7 -19 20
-51 28 -70 14 -32 17 -34 43 -25 15 5 47 14 71 20 23 6 42 15 42 20 0 5 -9 34
-21 65 -22 59 -29 63 -94 45z"/>
<path d="M2630 5610 c-20 -12 -52 -23 -70 -25 -31 -4 -247 -57 -285 -70 -22
-8 -101 -27 -175 -44 -130 -29 -160 -43 -160 -77 0 -23 36 -56 61 -56 13 0
121 26 239 57 118 31 273 72 343 90 127 32 167 53 167 85 0 40 -76 65 -120 40z
m-197 -77 c-7 -2 -19 -2 -25 0 -7 3 -2 5 12 5 14 0 19 -2 13 -5z"/>
<path d="M6783 5440 c-13 -5 -23 -14 -23 -20 0 -7 6 -8 19 0 11 5 31 10 45 10
14 0 28 5 31 10 8 12 -41 12 -72 0z"/>
<path d="M6805 5391 c-38 -13 -51 -23 -53 -41 -4 -26 4 -25 95 7 37 12 53 23
53 36 0 22 -28 21 -95 -2z"/>
<path d="M6833 5318 c-47 -15 -63 -25 -63 -39 0 -24 9 -24 92 3 49 16 68 26
66 37 -5 23 -26 23 -95 -1z"/>
<path d="M6863 5248 c-75 -22 -78 -24 -64 -46 7 -11 18 -10 62 3 88 27 99 33
93 50 -7 18 -1 18 -91 -7z"/>
<path d="M7465 5294 c-39 -22 -98 -79 -70 -69 48 19 173 16 161 -3 -3 -4 8
-16 23 -26 47 -32 57 -73 46 -188 -2 -21 -1 -38 3 -38 18 -1 43 -30 48 -55 3
-16 9 -36 15 -47 5 -10 7 -23 4 -28 -14 -22 13 -8 59 32 61 53 85 104 86 184
0 49 -5 68 -29 105 -61 95 -137 140 -245 146 -53 3 -78 -1 -101 -13z"/>
<path d="M3739 4641 c-43 -14 -69 -31 -69 -46 0 -19 2 -19 84 9 63 21 68 24
49 35 -24 12 -28 12 -64 2z"/>
<path d="M3750 4570 c-30 -11 -56 -20 -57 -20 -2 0 -3 -9 -3 -21 0 -13 5 -19
13 -16 6 2 40 13 75 23 46 14 62 23 62 36 0 23 -19 22 -90 -2z"/>
<path d="M3768 4498 c-53 -18 -72 -38 -49 -52 7 -5 139 30 149 39 1 1 0 10 -4
19 -8 20 -23 19 -96 -6z"/>
<path d="M3798 4427 c-116 -36 -77 -65 40 -31 68 19 64 17 56 38 -8 20 -13 20
-96 -7z"/>
<path d="M3828 4368 c-74 -33 -89 -54 -34 -45 55 9 106 37 106 58 0 11 -1 19
-2 18 -2 0 -33 -14 -70 -31z"/>
<path d="M1061 2370 c0 -8 4 -22 9 -30 12 -18 12 -2 0 25 -6 13 -9 15 -9 5z"/>
<path d="M1081 2294 c0 -11 3 -14 6 -6 3 7 2 16 -1 19 -3 4 -6 -2 -5 -13z"/>
<path d="M7815 3275 c-5 -2 -36 -11 -67 -20 -32 -9 -58 -20 -58 -25 0 -5 9
-34 21 -65 14 -38 26 -55 38 -55 34 0 122 31 142 51 49 49 -10 138 -76 114z"/>
<path d="M6570 3022 c-36 -9 -67 -17 -69 -18 -7 -6 62 -213 69 -209 4 3 21 49
38 102 43 139 44 143 35 142 -4 -1 -37 -8 -73 -17z"/>
<path d="M3340 4030 c-11 -8 -7 -9 15 -4 37 8 45 14 19 14 -10 0 -26 -5 -34
-10z"/>
<path d="M3488 4033 c7 -3 16 -2 19 1 4 3 -2 6 -13 5 -11 0 -14 -3 -6 -6z"/>
<path d="M5590 3315 c0 -96 3 -175 6 -175 3 0 54 12 114 26 l110 27 -38 52
c-133 186 -178 245 -184 245 -5 0 -8 -79 -8 -175z"/>
<path d="M4675 3281 c-49 -15 -90 -32 -89 -37 3 -38 41 -134 53 -134 8 0 58
12 112 26 124 33 148 55 130 114 -20 69 -61 75 -206 31z"/>
<path d="M4701 2486 c-30 -6 -56 -16 -58 -23 -2 -6 3 -36 12 -67 14 -46 20
-56 39 -56 31 0 137 29 153 42 21 17 16 72 -10 96 -26 24 -53 26 -136 8z"/>
<path d="M3998 2363 l-76 -16 15 -51 c8 -28 18 -55 22 -59 13 -13 155 21 169
40 20 27 14 60 -14 82 -15 12 -29 21 -33 20 -3 -1 -40 -8 -83 -16z"/>
<path d="M4055 2146 c-33 -6 -60 -16 -60 -21 0 -6 6 -34 14 -62 15 -62 19 -63
132 -37 53 12 74 22 86 41 15 22 15 27 0 59 -16 32 -19 34 -64 33 -27 -1 -75
-7 -108 -13z"/>
<path d="M5990 2611 c0 -92 0 -93 23 -88 12 3 39 9 60 12 20 4 37 11 37 16 0
4 -21 34 -46 66 -79 99 -74 99 -74 -6z"/>
<path d="M5905 2045 c-4 -11 -11 -30 -16 -43 -14 -35 -11 -39 21 -34 33 5 35
11 15 62 -11 30 -14 32 -20 15z"/>
<path d="M245 195 c-52 -52 -13 -128 62 -123 40 3 83 46 83 83 0 59 -100 86
-145 40z m92 -11 c2 -7 -6 -10 -22 -7 -34 7 -55 -13 -55 -51 0 -24 -3 -27 -10
-16 -15 24 -12 39 15 66 26 26 65 30 72 8z m9 -50 c-4 -9 -9 -15 -11 -12 -3 3
-3 13 1 22 4 9 9 15 11 12 3 -3 3 -13 -1 -22z m-26 -18 c0 -9 -30 -14 -35 -6
-4 6 3 10 14 10 12 0 21 -2 21 -4z"/>
<path d="M32 3233 l-32 -4 0 -75 c0 -59 3 -74 15 -74 8 0 29 -13 47 -29 27
-24 33 -36 33 -71 0 -36 -6 -47 -35 -71 -19 -16 -40 -29 -47 -29 -10 0 -13
-21 -13 -80 0 -92 -2 -91 93 -59 173 57 297 178 297 288 0 147 -146 230 -358
204z m224 -114 c33 -22 43 -35 39 -48 -3 -10 -11 -38 -18 -62 -10 -33 -18 -44
-32 -44 -16 0 -21 8 -23 38 -3 31 -7 37 -26 37 -25 0 -46 17 -46 38 0 16 41
71 53 71 5 1 29 -13 53 -30z"/>
<path d="M1 2990 l0 -55 19 24 c25 29 25 33 0 62 l-19 24 0 -55z"/>
<path d="M366 1579 c-24 -13 -71 -24 -120 -29 -45 -4 -118 -20 -163 -36 -82
-27 -83 -28 -83 -61 l0 -34 43 26 c84 52 108 60 197 59 67 0 96 -5 135 -22
126 -58 162 -146 114 -279 -30 -82 -116 -166 -193 -188 -89 -26 -209 4 -267
66 l-29 31 0 -84 0 -84 98 -36 c53 -19 137 -48 186 -63 l89 -28 24 29 c27 32
73 101 73 108 0 3 -44 -11 -97 -29 -96 -34 -168 -46 -147 -25 5 5 66 30 134
55 68 25 134 52 148 61 14 10 45 59 75 122 48 99 51 113 52 182 l0 75 -50 30
c-48 29 -134 109 -165 153 l-15 21 -39 -20z m50 -66 c-11 -11 -19 6 -11 24 8
17 8 17 12 0 3 -10 2 -21 -1 -24z"/>
<path d="M97 1425 c-21 -8 -51 -24 -67 -35 -26 -19 -30 -28 -30 -68 l0 -47 20
30 c47 72 180 100 251 52 45 -30 71 -82 65 -126 -6 -39 -69 -111 -98 -111 -24
0 -23 6 7 42 35 42 34 100 -1 133 -21 20 -38 25 -78 25 -46 0 -56 -4 -84 -33
-61 -63 -34 -166 55 -203 104 -44 226 12 258 119 27 90 -21 181 -117 221 -45
19 -130 19 -181 1z m121 -167 c16 -16 16 -70 0 -86 -29 -29 -98 -1 -98 40 0
37 19 58 53 58 18 0 38 -5 45 -12z"/>
</g>
</svg>
